<?xml version="1.0" standalone="no"?>
<!DOCTYPE svg PUBLIC "-//W3C//DTD SVG 20010904//EN"
 "http://www.w3.org/TR/2001/REC-SVG-20010904/DTD/svg10.dtd">
<svg version="1.0" xmlns="http://www.w3.org/2000/svg"
 width="700.000000pt" height="700.000000pt" viewBox="0 0 700.000000 700.000000"
 preserveAspectRatio="xMidYMid meet">
<metadata>
Created by potrace 1.14, written by Peter Selinger 2001-2017
</metadata>
<g transform="translate(0.000000,700.000000) scale(0.100000,-0.100000)"
fill="#000000" stroke="none">
<path d="M4930 6424 c-256 -113 -476 -210 -490 -218 -14 -8 -94 -103 -178
-212 -84 -110 -182 -236 -217 -281 l-64 -82 -158 -77 c-87 -42 -241 -117 -343
-167 -213 -103 -489 -237 -740 -360 -96 -46 -269 -131 -385 -187 -411 -200
-541 -262 -580 -277 -52 -19 -553 -192 -585 -202 -14 -5 -34 -7 -46 -5 -17 3
-334 115 -586 207 -49 18 -70 22 -76 13 -13 -16 -116 -285 -111 -290 2 -2 83
-34 179 -71 96 -36 184 -71 195 -75 34 -16 298 -117 346 -133 25 -9 61 -13 79
-10 29 4 379 119 435 143 44 18 203 70 215 70 12 0 77 -65 267 -265 42 -44
150 -158 242 -253 91 -95 170 -182 175 -192 9 -19 -9 -52 -129 -240 -192 -300
-326 -525 -334 -562 -5 -24 -12 -74 -16 -113 -4 -38 -8 -72 -10 -75 -1 -3 -6
-36 -9 -75 -4 -38 -8 -81 -10 -95 -6 -33 -15 -103 -21 -165 -3 -27 -7 -63 -10
-80 -2 -16 -7 -52 -10 -80 -3 -27 -10 -84 -15 -125 -12 -90 -19 -151 -25 -205
-3 -22 -7 -56 -10 -75 -8 -60 -14 -113 -20 -170 -3 -30 -10 -67 -16 -82 -7
-17 -67 -70 -155 -139 l-145 -111 28 -37 c105 -138 178 -226 187 -225 10 1
271 199 304 231 6 6 36 16 65 22 73 15 457 89 487 95 14 2 72 14 130 25 58 12
119 24 135 27 17 3 47 9 68 14 41 9 30 15 193 -105 81 -59 118 -64 254 -34 47
10 96 21 110 24 14 2 70 14 125 25 55 12 111 23 125 26 14 2 66 13 115 24 50
11 146 31 215 45 221 46 207 36 341 235 46 69 86 127 89 130 3 3 28 39 55 80
60 89 37 68 231 215 88 66 161 122 164 125 3 3 86 66 185 141 795 598 728 544
751 604 29 77 17 109 -111 290 -38 55 -83 120 -100 145 -16 24 -35 51 -42 60
-7 8 -141 200 -297 425 -157 226 -289 415 -293 420 -5 6 -92 129 -193 275
l-185 265 -3 635 -2 636 162 71 c90 40 278 122 418 184 140 61 256 112 258
114 3 2 -28 72 -87 200 -23 48 -41 91 -41 95 0 5 -3 11 -7 13 -5 2 -217 -87
-473 -199z m-573 -1332 c0 -419 1 -460 18 -492 16 -31 172 -267 185 -280 3 -3
26 -36 52 -75 25 -38 117 -173 203 -300 86 -126 199 -293 251 -370 52 -77 134
-196 181 -265 181 -264 273 -404 273 -415 0 -13 -43 -47 -525 -410 -181 -137
-388 -294 -460 -348 l-130 -99 -135 -196 c-74 -107 -146 -204 -160 -214 -20
-15 -136 -43 -300 -74 -14 -3 -74 -16 -135 -29 -222 -48 -322 -65 -341 -59
-10 4 -53 33 -94 64 -111 84 -132 93 -204 86 -34 -3 -83 -10 -111 -16 -27 -6
-63 -13 -80 -16 -16 -2 -64 -12 -105 -20 -41 -9 -86 -18 -100 -20 -14 -2 -45
-9 -70 -14 -25 -5 -60 -12 -78 -15 -18 -3 -65 -12 -105 -21 -39 -8 -90 -18
-113 -20 l-41 -6 8 59 c5 32 11 83 14 113 3 31 7 64 9 75 2 11 7 49 11 85 3
36 8 76 10 90 2 14 7 50 10 80 4 30 9 62 10 70 1 8 6 47 9 85 4 39 9 81 11 95
5 30 12 84 21 165 3 33 8 67 9 75 2 8 6 44 10 80 5 53 15 80 48 133 103 166
253 406 282 452 195 305 204 322 210 379 7 66 -20 104 -205 297 -91 95 -185
193 -210 219 -193 201 -315 332 -318 338 -1 5 23 21 55 37 32 16 162 79 288
140 127 62 329 161 450 220 121 59 285 139 365 177 123 60 288 141 785 384 85
42 104 58 179 157 32 42 60 77 61 77 0 0 1 -206 2 -458z"/>
</g>
</svg>
