<?xml version="1.0" standalone="no"?>
<!DOCTYPE svg PUBLIC "-//W3C//DTD SVG 20010904//EN"
 "http://www.w3.org/TR/2001/REC-SVG-20010904/DTD/svg10.dtd">
<svg version="1.0" xmlns="http://www.w3.org/2000/svg"
 width="700.000000pt" height="700.000000pt" viewBox="0 0 700.000000 700.000000"
 preserveAspectRatio="xMidYMid meet">
<metadata>
Created by potrace 1.14, written by Peter Selinger 2001-2017
</metadata>
<g transform="translate(0.000000,700.000000) scale(0.100000,-0.100000)"
fill="#000000" stroke="none">
<path d="M5625 6475 c-37 -17 -369 -162 -690 -302 -132 -57 -248 -113 -259
-123 -10 -10 -111 -138 -225 -285 -113 -147 -213 -272 -221 -276 -8 -5 -136
-68 -285 -140 -148 -72 -344 -167 -435 -211 -441 -215 -567 -276 -715 -348
-88 -43 -268 -130 -400 -195 -330 -161 -330 -161 -505 -221 -85 -29 -219 -76
-298 -103 -79 -27 -153 -51 -165 -52 -21 -3 -127 28 -192 56 -36 15 -481 175
-488 175 -2 0 -12 -21 -22 -47 -10 -27 -26 -66 -35 -88 -25 -57 -60 -154 -60
-165 0 -6 6 -10 13 -10 6 0 46 -14 87 -31 41 -17 152 -60 245 -96 459 -178
430 -170 536 -133 35 12 179 62 320 110 l255 88 125 -130 c68 -71 148 -155
178 -186 30 -31 124 -131 210 -220 86 -90 160 -170 164 -178 4 -7 3 -24 -4
-36 -12 -24 -173 -285 -214 -348 -73 -112 -228 -367 -236 -387 -5 -13 -16 -81
-24 -151 -16 -132 -24 -190 -30 -232 -2 -14 -6 -50 -10 -80 -3 -30 -7 -71 -10
-90 -2 -19 -7 -57 -10 -85 -11 -88 -16 -129 -20 -155 -2 -14 -6 -54 -10 -90
-4 -36 -8 -76 -10 -90 -2 -14 -6 -43 -9 -65 -3 -22 -8 -65 -11 -95 -4 -30 -8
-66 -10 -80 -2 -14 -7 -50 -10 -80 -12 -92 -17 -100 -95 -160 -25 -19 -47 -37
-50 -40 -3 -3 -40 -31 -82 -63 -42 -32 -79 -61 -82 -65 -4 -7 194 -265 206
-266 6 -1 268 197 294 221 16 16 57 32 102 39 19 3 44 8 56 10 34 8 219 44
251 50 17 2 37 7 45 9 8 2 31 7 50 10 19 3 53 10 75 15 22 5 60 12 85 15 24 4
47 8 50 10 3 2 48 11 100 20 52 9 102 18 110 20 9 3 63 -30 124 -75 59 -44
115 -81 124 -81 58 -5 110 3 307 44 121 25 306 64 410 86 105 22 203 42 218
45 15 3 52 12 82 20 63 19 59 14 253 296 78 113 152 212 164 221 13 9 140 105
283 213 143 109 271 206 285 216 585 439 645 487 668 531 34 64 26 120 -29
201 -82 120 -1082 1553 -1133 1623 l-51 70 0 638 0 638 285 125 c157 68 304
133 327 144 24 11 45 20 48 20 2 0 34 14 70 30 36 17 69 30 74 30 5 0 13 6 19
13 8 10 -6 50 -54 157 -36 80 -69 148 -72 152 -4 4 -20 1 -37 -7z m-1006
-1520 c1 -366 4 -463 15 -490 8 -18 43 -75 78 -127 60 -86 290 -424 496 -728
47 -69 147 -215 222 -325 288 -421 351 -518 348 -533 -3 -14 -316 -255 -929
-715 l-177 -132 -143 -207 c-93 -135 -153 -211 -169 -217 -26 -11 -135 -37
-193 -46 -30 -5 -107 -21 -384 -80 -195 -41 -176 -44 -296 47 -99 76 -143 89
-230 72 -34 -7 -75 -15 -92 -18 -16 -2 -64 -11 -105 -20 -41 -8 -86 -17 -100
-19 -14 -3 -119 -24 -235 -46 -115 -23 -215 -41 -221 -41 -8 0 -9 15 -4 48 4
26 11 74 14 107 8 70 14 128 20 170 3 17 8 62 11 100 4 39 8 77 10 85 3 8 7
40 10 70 3 30 7 71 10 90 3 19 7 53 10 76 3 23 8 61 10 84 14 138 37 298 44
316 5 11 89 149 187 305 97 156 182 293 188 304 6 11 29 47 50 80 77 118 106
183 100 223 -9 63 -33 95 -210 279 -169 176 -262 273 -441 461 l-93 97 168 82
c92 45 271 132 397 194 127 61 318 154 425 206 107 53 272 133 365 178 562
273 663 324 691 348 18 15 58 61 89 102 32 41 59 75 60 75 1 0 3 -205 4 -455z"/>
</g>
</svg>
