<?xml version="1.0" encoding="utf-8"?>
<!-- Generator: Adobe Illustrator 26.0.2, SVG Export Plug-In . SVG Version: 6.00 Build 0)  -->
<svg version="1.1" id="Layer_1" xmlns="http://www.w3.org/2000/svg" xmlns:xlink="http://www.w3.org/1999/xlink" x="0px" y="0px"
	 viewBox="0 0 510 510" style="enable-background:new 0 0 510 510;" xml:space="preserve">
<style type="text/css">
	.st0{stroke:#000000;stroke-width:5;stroke-miterlimit:10;}
</style>
<g>
	<path class="st0" d="M29.8,196.26l6.91-17.46l43.95,15.92c2.15,0.78,4.51,0.8,6.67,0.05l44.84-15.49c0.38-0.13,0.75-0.29,1.11-0.46
		l156.54-76.24c1.39-0.68,2.61-1.67,3.55-2.9l28.59-37.2c1.03-1.33,2.37-2.39,3.91-3.06l66.24-29.05l8.3,18.2l-61.81,27.11
		c-1.54,0.68-2.89,1.73-3.91,3.06l-27.52,35.81c-1.48,1.92-3.38,3.47-5.56,4.53l-160.66,78.25c-0.36,0.18-0.73,0.33-1.11,0.46
		l-52.67,18.19c-1.06,0.37-2.16,0.55-3.26,0.55c-1.15,0-2.31-0.2-3.4-0.6L29.8,196.26z"/>
	<path class="st0" d="M117.8,429.86l17.73-13.82c2.1-1.63,3.45-4.03,3.78-6.67l11.64-95c0.18-1.45,0.67-2.84,1.44-4.08l32.12-51.5
		c1.3-2.08,1.02-4.77-0.67-6.55l-54.48-56.99c-3.82-3.99-3.67-10.32,0.32-14.14c3.99-3.82,10.32-3.67,14.14,0.32l62.73,65.62
		c3.16,3.3,3.67,8.33,1.26,12.2l-36.1,57.86c-0.77,1.24-1.26,2.63-1.44,4.08l-12.11,98.84c-0.32,2.64-1.68,5.04-3.78,6.67
		l-24.28,18.93L117.8,429.86z"/>
	<path class="st0" d="M319.96,169.71L319.9,68.58c0-5.52,4.47-10,10-10h0c5.52,0,10,4.47,10,10l0.06,97.93
		c0,2.04,0.63,4.04,1.8,5.72l86.64,124.19c3.08,4.41,2.12,10.46-2.18,13.7l-87.56,66.12c-0.86,0.65-1.61,1.44-2.23,2.33
		l-20.88,30.49c-1.46,2.13-3.68,3.61-6.2,4.14l-67.13,14.03c-2.83,0.6-5.78-0.07-8.08-1.82l-13.78-10.43c0,0,0,0,0,0l-70.21,13.67
		c-0.65,0.13-1.29,0.19-1.92,0.19c-4.69,0-8.88-3.32-9.8-8.09c-1.06-5.42,2.48-10.67,7.9-11.73l74.6-14.53
		c2.79-0.54,5.68,0.13,7.95,1.84l10.09,7.64c2.31,1.75,5.25,2.41,8.08,1.82l50.36-10.53c2.52-0.53,4.75-2.01,6.2-4.14l18.18-26.55
		c0.61-0.89,1.36-1.68,2.23-2.33L402.45,303c2.26-1.71,2.79-4.89,1.19-7.23l-81.95-120.44
		C320.56,173.68,319.96,171.72,319.96,169.71z"/>
</g>
</svg>
