<?xml version="1.0" encoding="utf-8"?>
<!-- Generator: Adobe Illustrator 26.0.3, SVG Export Plug-In . SVG Version: 6.00 Build 0)  -->
<svg version="1.1" id="Layer_1" xmlns="http://www.w3.org/2000/svg" xmlns:xlink="http://www.w3.org/1999/xlink" x="0px" y="0px"
	 viewBox="0 0 180 180" style="enable-background:new 0 0 180 180;" xml:space="preserve">
<style type="text/css">
	.st0{stroke:#000000;stroke-width:0.18;stroke-miterlimit:10;}
</style>
<g>
	<path class="st0" d="M10.6,69.3l2.4-6.2l15.5,5.6c0.8,0.3,1.6,0.3,2.4,0l15.8-5.5c0.1,0,0.3-0.1,0.4-0.2l55.2-26.9
		c0.5-0.2,0.9-0.6,1.3-1l10.1-13.1c0.4-0.5,0.8-0.8,1.4-1.1l23.4-10.2l2.9,6.4l-21.8,9.6c-0.5,0.2-1,0.6-1.4,1.1l-9.7,12.6
		c-0.5,0.7-1.2,1.2-2,1.6L49.8,69.7c-0.1,0.1-0.3,0.1-0.4,0.2l-18.6,6.4c-0.4,0.1-0.8,0.2-1.1,0.2c-0.4,0-0.8-0.1-1.2-0.2L10.6,69.3
		z"/>
	<path class="st0" d="M41.6,151.6l6.3-4.9c0.7-0.6,1.2-1.4,1.3-2.4l4.1-33.5c0.1-0.5,0.2-1,0.5-1.4l11.3-18.2
		c0.5-0.7,0.4-1.7-0.2-2.3L45.7,68.9c-1.3-1.4-1.3-3.6,0.1-5c1.4-1.3,3.6-1.3,5,0.1l22.1,23.1c1.1,1.2,1.3,2.9,0.4,4.3l-12.7,20.4
		c-0.3,0.4-0.4,0.9-0.5,1.4l-4.3,34.8c-0.1,0.9-0.6,1.8-1.3,2.4l-8.6,6.7L41.6,151.6z"/>
	<path class="st0" d="M112.9,59.9l0-35.7c0-1.9,1.6-3.5,3.5-3.5l0,0c1.9,0,3.5,1.6,3.5,3.5l0,34.5c0,0.7,0.2,1.4,0.6,2l30.5,43.8
		c1.1,1.6,0.7,3.7-0.8,4.8l-30.9,23.3c-0.3,0.2-0.6,0.5-0.8,0.8l-7.4,10.8c-0.5,0.8-1.3,1.3-2.2,1.5l-23.7,4.9c-1,0.2-2,0-2.8-0.6
		l-4.9-3.7l0,0L53,151.2c-0.2,0-0.5,0.1-0.7,0.1c-1.7,0-3.1-1.2-3.5-2.9c-0.4-1.9,0.9-3.8,2.8-4.1l26.3-5.1c1-0.2,2,0,2.8,0.6
		l3.6,2.7c0.8,0.6,1.9,0.8,2.8,0.6l17.8-3.7c0.9-0.2,1.7-0.7,2.2-1.5l6.4-9.4c0.2-0.3,0.5-0.6,0.8-0.8l27.7-20.9
		c0.8-0.6,1-1.7,0.4-2.5l-28.9-42.5C113.1,61.3,112.9,60.6,112.9,59.9z"/>
</g>
</svg>
